<svg width="42" height="42" viewBox="0 0 42 42" fill="none" xmlns="http://www.w3.org/2000/svg">
<path opacity="0.1" fill-rule="evenodd" clip-rule="evenodd" d="M40.6377 19.814C40.4183 19.7228 40.1658 19.7732 39.9978 19.9416L38.2394 21.7057V9.71161C38.2394 9.38628 37.9766 9.12261 37.6523 9.12261H33.1413L34.7788 7.47985L34.7795 7.47906L36.3573 5.89617C36.6954 5.55704 36.8816 5.10591 36.8816 4.62624C36.8816 4.14658 36.6954 3.6956 36.3573 3.35631L34.5328 1.52591C34.1948 1.18677 33.7451 1 33.2669 1C32.7888 1 32.3392 1.18677 32.0011 1.52591L30.4225 3.10958L28.515 5.02322L24.4288 9.12254H6.2047V3.29564C6.2047 2.9703 5.94181 2.70665 5.61759 2.70665C3.07149 2.70681 1 4.7848 1 7.33924V32.3559C1 32.3994 1.005 32.4417 1.01391 32.4825C1.095 33.5664 1.56242 34.5734 2.3436 35.3379C3.1786 36.1549 4.28087 36.6048 5.44743 36.6048H23.3879L20.0091 39.9946C19.8412 40.163 19.791 40.4162 19.8818 40.6364C19.9727 40.8565 20.1868 41 20.4243 41H40.413C40.7372 41 41.0001 40.7364 41.0001 40.411V20.3582C41.0001 20.12 40.857 19.9052 40.6377 19.814ZM32.8315 2.35897C33.0715 2.11804 33.4626 2.11804 33.7026 2.35897L35.5272 4.18945C35.7673 4.4303 35.7673 4.82242 35.5272 5.06335L34.3638 6.23053L31.668 3.52615L32.8315 2.35897ZM30.8377 4.35913L33.5334 7.06343L32.4562 8.14417L29.7606 5.43987L30.8377 4.35913ZM18.3967 21.76L16.715 22.3556L15.5945 21.2315L16.1882 19.5444L18.3967 21.76ZM35.8293 30.1707L30.1707 35.8293C30.1077 35.8923 30.1523 36 30.2414 36H36V30.2414C36 30.1523 35.8923 30.1077 35.8293 30.1707ZM16 18.5L19.5 22L32.5 9L29 5.5L16 18.5Z" fill="url(#paint0_linear)"/>
<path d="M36.3998 29.2549C36.1804 29.1637 35.9279 29.2141 35.76 29.3825L29.3439 35.8193C29.176 35.9878 29.1257 36.2411 29.2167 36.4612C29.3075 36.6814 29.5217 36.8248 29.7591 36.8248H36.1752C36.4995 36.8248 36.7623 36.5611 36.7623 36.2358V29.799C36.7622 29.5609 36.6192 29.3461 36.3998 29.2549ZM31.1763 35.6469L35.5879 31.221V35.6469H31.1763Z" fill="url(#paint1_linear)" stroke="url(#paint2_linear)" stroke-width="0.25"/>
<path d="M40.6377 19.814C40.4183 19.7228 40.1658 19.7732 39.9978 19.9416L38.2394 21.7057V9.71161C38.2394 9.38628 37.9766 9.12261 37.6523 9.12261H33.1413L34.7788 7.47985C34.7791 7.47962 34.7793 7.47929 34.7795 7.47906L36.3573 5.89617C36.6954 5.55704 36.8816 5.10591 36.8816 4.62624C36.8816 4.14658 36.6954 3.6956 36.3573 3.35631L34.5328 1.52591C34.1948 1.18677 33.7451 1 33.2669 1C32.7888 1 32.3392 1.18677 32.0011 1.52591L30.4225 3.10958L28.515 5.02322L24.4288 9.12254H6.2047V3.29564C6.2047 2.9703 5.94181 2.70665 5.61759 2.70665C3.07149 2.70681 1 4.7848 1 7.33924V32.3559C1 32.3994 1.005 32.4417 1.01391 32.4825C1.095 33.5664 1.56242 34.5734 2.3436 35.3379C3.1786 36.1549 4.28087 36.6048 5.44743 36.6048H23.3879L20.0091 39.9946C19.8412 40.163 19.791 40.4162 19.8818 40.6364C19.9727 40.8565 20.1868 41 20.4243 41H40.413C40.7372 41 41.0001 40.7364 41.0001 40.411V20.3582C41.0001 20.12 40.857 19.9052 40.6377 19.814ZM32.8315 2.35897C33.0715 2.11804 33.4626 2.11804 33.7026 2.35897L35.5272 4.18945C35.7673 4.4303 35.7673 4.82242 35.5272 5.06335L34.3638 6.23053L31.668 3.52615L32.8315 2.35897ZM30.8377 4.35913L33.5334 7.06343L32.4562 8.14417L29.7606 5.43987L30.8377 4.35913ZM39.826 26.9764H38.7428C38.4185 26.9764 38.1557 27.2401 38.1557 27.5654C38.1557 27.8908 38.4185 28.1544 38.7428 28.1544H39.826V29.9293H38.7428C38.4185 29.9293 38.1557 30.1931 38.1557 30.5184C38.1557 30.8437 38.4185 31.1075 38.7428 31.1075H39.826V34.0105C39.826 34.3358 40.0888 34.5996 40.413 34.5996C40.7373 34.5996 41.0001 34.3358 41.0001 34.0105V31.1075H41.678C42.0023 31.1075 42.2651 30.8437 42.2651 30.5184C42.2651 30.1931 42.0023 29.9293 41.678 29.9293H41.0001V28.1544H41.678C42.0023 28.1544 42.2651 27.8908 42.2651 27.5654C42.2651 27.2401 42.0023 26.9764 41.678 26.9764H41.0001V25.1976H41.678C42.0023 25.1976 42.2651 24.9339 42.2651 24.6085C42.2651 24.2832 42.0023 24.0194 41.678 24.0194H41.0001V20.3582C41.0001 20.12 40.857 19.9052 40.6377 19.814ZM18.7427 21.2344L16.75 19.2316L16.0246 21.2112C15.9523 21.4086 16.0101 21.6306 16.1696 21.7856L17.6447 23.2535C17.8067 23.4101 18.0416 23.4637 18.2567 23.3886C18.4709 23.3135 18.6146 23.1258 18.6146 22.9111V21.5589C18.6155 21.4542 18.5798 21.3522 18.5125 21.2735ZM23.8977 13.3495L19.1445 18.0856L23.2845 22.2327C23.4442 22.3933 23.6952 22.4455 23.9077 22.3588L26.3728 21.3079C26.4737 21.2656 26.5593 21.1915 26.6165 21.0965C26.6737 21.0015 26.6997 20.8908 26.6901 20.7797C26.6806 20.6686 26.6358 20.5633 26.5633 20.4781C26.4908 20.393 26.3942 20.332 26.2883 20.3052L23.9016 19.6816L25.3344 18.2381C25.4943 18.0804 25.5455 17.8287 25.4642 17.6042L24.4123 15.1388C24.3254 14.9263 24.1738 14.7444 23.9798 14.6189C23.7858 14.4934 23.5598 14.432 23.3326 14.4445C23.1054 14.457 22.8888 14.5427 22.7187 14.6859L21.2743 16.1257L20.6478 13.7402C20.618 13.6273 20.5581 13.5259 20.4751 13.4451C20.3921 13.3644 20.2882 13.3073 20.1734 13.2804C20.0587 13.2534 19.9371 13.2572 19.8236 13.2914C19.7102 13.3256 19.6093 13.3889 19.531 13.4749C19.4528 13.5608 19.4002 13.6663 19.3795 13.7783L18.8586 16.6198L15.799 13.5698H6.67975C6.35553 13.5698 6.09265 13.3062 6.09265 12.9808V4.88591H24.0825L27.1261 7.92148L23.8977 11.1506V13.3495Z" fill="url(#paint3_linear)"/>
<defs>
<linearGradient id="paint0_linear" x1="21" y1="1" x2="21" y2="41" gradientUnits="userSpaceOnUse">
<stop stop-color="#B8C1E0"/>
<stop offset="1" stop-color="#DEE1ED"/>
</linearGradient>
<linearGradient id="paint1_linear" x1="32.9886" y1="29.2549" x2="32.9886" y2="36.8248" gradientUnits="userSpaceOnUse">
<stop stop-color="#B8C1E0"/>
<stop offset="1" stop-color="#DEE1ED"/>
</linearGradient>
<linearGradient id="paint2_linear" x1="32.9886" y1="29.2549" x2="32.9886" y2="36.8248" gradientUnits="userSpaceOnUse">
<stop stop-color="#B8C1E0"/>
<stop offset="1" stop-color="#DEE1ED"/>
</linearGradient>
<linearGradient id="paint3_linear" x1="21" y1="1" x2="21" y2="41" gradientUnits="userSpaceOnUse">
<stop stop-color="#B8C1E0"/>
<stop offset="1" stop-color="#DEE1ED"/>
</linearGradient>
</defs>
</svg>
